<?xml version="1.0" standalone="no"?>
<!DOCTYPE svg PUBLIC "-//W3C//DTD SVG 20010904//EN"
 "http://www.w3.org/TR/2001/REC-SVG-20010904/DTD/svg10.dtd">
<svg version="1.0" xmlns="http://www.w3.org/2000/svg"
 width="400.000000pt" height="400.000000pt" viewBox="0 0 400.000000 400.000000"
 preserveAspectRatio="xMidYMid meet">

<g transform="translate(0.000000,400.000000) scale(0.100000,-0.100000)"
fill="#000000" stroke="none">
<path d="M1493 3984 c-12 -8 -48 -18 -80 -21 -32 -3 -72 -14 -89 -24 -17 -11
-47 -19 -66 -19 -22 0 -42 -7 -53 -20 -10 -11 -28 -20 -40 -20 -12 0 -30 -9
-40 -20 -10 -11 -27 -20 -38 -20 -10 0 -32 -10 -47 -22 -58 -47 -74 -58 -86
-58 -13 0 -33 -18 -154 -134 -137 -132 -229 -250 -295 -381 -8 -16 -19 -37
-24 -45 -6 -8 -22 -42 -36 -75 -15 -33 -36 -78 -46 -100 -11 -22 -19 -47 -19
-55 -1 -8 -9 -33 -20 -55 -11 -22 -20 -51 -20 -65 0 -14 -9 -43 -19 -65 -10
-22 -21 -68 -25 -103 -4 -34 -13 -79 -20 -100 -7 -20 -17 -73 -21 -116 -4 -44
-14 -98 -22 -120 -23 -61 -22 -615 1 -699 8 -32 18 -93 21 -135 4 -42 11 -90
17 -107 5 -16 15 -66 22 -110 l12 -80 77 -3 c71 -3 78 -5 99 -33 57 -73 162
-169 185 -169 5 0 26 -10 48 -21 22 -12 64 -25 94 -28 51 -6 55 -8 63 -37 4
-17 15 -37 23 -44 8 -7 15 -20 15 -29 0 -10 11 -32 25 -51 14 -19 25 -41 25
-50 0 -9 9 -25 20 -35 11 -10 20 -24 20 -31 0 -7 18 -35 41 -64 68 -86 89
-122 89 -151 0 -25 -5 -30 -48 -43 -26 -8 -60 -21 -77 -30 -16 -9 -36 -16 -43
-16 -8 0 -25 -9 -39 -20 -14 -11 -34 -20 -44 -20 -10 0 -21 -5 -24 -10 -4 -6
-25 -20 -48 -31 -87 -44 -208 -133 -294 -214 l-88 -84 42 -1 c37 0 49 6 105
56 64 58 89 76 207 151 125 81 407 203 467 203 11 0 53 -30 94 -67 40 -38 87
-77 103 -88 17 -11 41 -27 53 -35 51 -34 135 -80 146 -80 7 0 28 -9 46 -20 18
-11 39 -20 47 -20 9 0 41 -9 73 -20 85 -31 291 -31 393 0 127 39 186 67 324
157 44 29 112 82 150 118 50 47 76 64 90 61 31 -7 136 -45 172 -61 17 -8 34
-15 37 -15 8 0 206 -98 250 -124 57 -34 185 -129 234 -176 37 -34 50 -40 85
-40 l42 1 -89 84 c-83 80 -255 204 -303 219 -11 4 -27 13 -33 21 -7 8 -20 15
-30 15 -9 0 -29 9 -43 20 -14 11 -31 20 -39 20 -7 0 -29 8 -48 19 -19 10 -50
22 -67 25 -18 4 -36 12 -39 17 -5 8 22 55 59 104 71 93 134 189 143 217 4 13
15 34 25 47 11 13 19 31 19 39 0 9 6 23 14 31 7 9 18 29 23 46 9 28 60 63 116
81 34 10 117 81 170 146 47 56 50 58 97 58 27 0 56 3 65 6 27 11 45 60 45 121
0 37 6 67 16 81 10 15 18 61 23 147 5 81 13 131 22 141 11 14 14 91 14 418 0
354 -2 406 -17 441 -9 23 -19 78 -21 128 -3 52 -11 96 -19 110 -8 12 -18 51
-21 86 -4 36 -13 72 -21 80 -7 9 -17 37 -20 63 -4 25 -13 51 -20 58 -8 6 -17
27 -21 48 -8 48 -91 216 -131 267 -17 22 -34 51 -39 63 -9 30 -258 282 -278
282 -8 0 -36 17 -63 39 -28 22 -66 41 -88 45 -22 4 -51 16 -64 27 -14 11 -40
19 -61 19 -20 0 -48 8 -61 18 -21 14 -56 18 -236 22 -145 3 -216 9 -226 17 -8
7 -48 15 -89 19 -41 3 -87 14 -104 22 -45 24 -619 29 -652 6z m538 -89 c16 -9
60 -19 97 -22 37 -3 83 -14 102 -25 19 -10 51 -18 71 -18 21 0 42 -7 50 -16
14 -17 71 -15 144 5 63 17 159 13 222 -9 32 -11 78 -20 104 -20 33 0 51 -5 64
-20 10 -11 30 -20 45 -20 15 0 35 -9 45 -20 10 -11 27 -20 38 -20 11 0 30 -10
42 -22 13 -13 35 -32 50 -43 28 -21 75 -59 88 -72 27 -27 97 -109 97 -114 0
-3 11 -18 25 -33 14 -15 25 -34 25 -42 0 -7 4 -14 10 -14 5 0 16 -15 24 -34 8
-18 19 -37 25 -40 6 -4 11 -15 11 -25 0 -10 9 -30 20 -44 11 -14 23 -40 27
-59 3 -18 14 -44 25 -57 10 -13 18 -37 18 -53 0 -17 9 -41 20 -55 13 -16 20
-41 20 -67 0 -24 8 -53 20 -71 14 -21 20 -47 20 -90 0 -38 8 -76 20 -104 15
-33 20 -65 20 -135 0 -50 7 -145 15 -211 16 -135 18 -286 5 -360 -5 -27 -12
-120 -16 -205 -4 -112 -11 -171 -25 -213 -12 -36 -19 -85 -19 -132 l0 -75 -74
0 c-41 0 -77 4 -80 9 -3 4 0 22 6 38 14 37 0 96 -24 101 -28 5 -68 -40 -75
-83 -8 -57 -18 -65 -79 -65 -56 0 -73 12 -54 36 8 8 18 85 26 192 7 97 17 218
23 267 16 136 14 665 -3 783 -8 53 -18 131 -21 172 -4 41 -13 90 -20 110 -7
19 -16 55 -19 80 -7 43 -33 121 -62 185 -49 109 -45 103 -96 180 -48 73 -202
200 -268 220 -14 4 -36 16 -49 26 -13 11 -36 19 -52 19 -16 0 -45 9 -66 20
-34 17 -63 19 -275 22 -234 3 -256 6 -227 35 30 30 -37 51 -84 27 -18 -9 -69
-19 -114 -23 -56 -4 -87 -12 -100 -24 -11 -9 -33 -17 -50 -17 -17 0 -38 -8
-48 -20 -10 -11 -28 -20 -40 -20 -12 0 -32 -11 -45 -25 -13 -14 -29 -25 -36
-25 -6 0 -14 -7 -18 -15 -3 -8 -12 -15 -19 -15 -30 0 -227 -235 -227 -270 0
-8 -9 -23 -20 -33 -11 -9 -20 -26 -20 -38 0 -11 -9 -32 -20 -46 -11 -14 -20
-37 -20 -52 0 -14 -9 -39 -20 -56 -12 -19 -20 -47 -20 -75 0 -28 -8 -56 -20
-75 -15 -22 -20 -47 -20 -96 0 -36 -9 -99 -20 -140 -17 -66 -20 -107 -20 -394
0 -258 3 -331 15 -375 9 -30 18 -116 21 -190 4 -95 12 -153 26 -195 11 -37 18
-80 16 -109 l-3 -49 -105 1 -105 0 -32 52 c-17 29 -36 57 -42 63 -18 18 -35
-8 -41 -65 l-5 -51 -104 1 c-56 0 -105 3 -108 5 -2 3 -6 27 -8 53 -2 27 -13
67 -25 89 -11 21 -20 55 -20 73 0 19 -10 51 -22 71 -23 36 -23 37 -23 466 1
305 4 449 13 495 7 36 18 99 23 140 38 281 162 597 303 775 57 71 186 197 238
231 90 61 252 130 321 138 26 3 60 12 75 20 41 23 470 23 513 1z m500 -345
c73 -19 137 -47 192 -84 63 -42 151 -134 174 -181 8 -16 29 -59 48 -95 19 -36
35 -72 35 -80 0 -9 9 -33 20 -55 11 -22 20 -53 20 -70 0 -16 7 -43 16 -60 9
-16 20 -68 25 -115 5 -47 15 -112 24 -145 12 -49 15 -141 15 -487 0 -381 -2
-438 -20 -543 -11 -64 -20 -147 -20 -183 0 -37 -7 -98 -15 -137 -20 -93 -20
-95 16 -102 17 -3 33 -12 36 -19 10 -27 -227 -284 -261 -284 -15 0 -18 10 -30
104 -3 21 -12 46 -20 55 -8 9 -18 29 -22 45 -8 35 -130 160 -165 171 -13 4
-35 16 -48 26 -13 11 -34 19 -47 19 -13 0 -40 9 -61 19 -31 16 -70 21 -200 27
-90 3 -163 10 -163 13 0 4 5 12 11 18 7 7 9 19 5 29 -6 15 -17 16 -93 11 -47
-3 -88 -9 -91 -11 -3 -3 1 -13 8 -21 8 -9 9 -19 4 -24 -5 -5 -80 -13 -167 -19
-120 -8 -163 -14 -176 -26 -10 -9 -27 -16 -38 -16 -40 0 -119 -53 -189 -125
-74 -78 -90 -106 -122 -220 -12 -43 -25 -71 -34 -73 -34 -7 -247 251 -234 284
4 11 42 14 178 16 l173 3 -2 84 c-2 50 -8 92 -16 105 -9 13 -17 68 -21 147 -7
138 -12 173 -26 199 -5 10 -12 123 -16 251 -7 263 -7 264 61 279 65 15 123 12
163 -10 103 -56 150 -85 183 -111 45 -36 61 -36 105 -3 44 34 45 65 2 87 -216
112 -213 110 -216 148 -2 20 6 75 17 122 12 47 21 96 21 110 0 14 4 28 9 31 5
3 14 45 21 93 6 49 18 100 26 115 8 15 17 51 20 80 4 29 14 64 23 78 10 14 20
42 24 63 3 20 15 49 26 64 12 14 21 32 21 40 0 9 18 38 40 65 22 28 40 56 40
63 0 19 126 142 168 165 20 11 44 24 52 29 81 46 99 50 280 50 97 0 192 -4
211 -9z m-751 -9 c0 -5 -16 -26 -36 -47 -19 -22 -41 -50 -48 -64 -42 -81 -50
-96 -58 -110 -19 -35 -47 -124 -64 -203 -7 -37 -18 -76 -23 -85 -5 -10 -14
-65 -21 -122 -6 -58 -17 -143 -25 -190 -8 -47 -14 -142 -14 -212 -1 -70 -5
-129 -11 -133 -5 -3 -31 1 -57 9 -26 8 -76 22 -111 32 -35 9 -65 22 -69 27 -3
5 -5 58 -4 119 1 77 6 117 16 132 8 12 18 58 21 102 4 50 13 90 25 110 11 17
19 47 19 66 0 20 9 46 20 61 11 14 20 38 20 55 0 16 9 41 20 55 11 14 20 32
20 40 0 9 11 29 25 45 14 17 25 37 25 47 0 24 199 221 242 239 20 9 39 20 43
26 8 12 45 13 45 1z m238 -2226 c0 -25 -4 -45 -8 -45 -9 0 -19 78 -11 86 13
13 20 -1 19 -41z m-88 -24 c14 -26 13 -64 -2 -79 -7 -7 -35 -12 -64 -12 -28 0
-76 -5 -105 -10 -30 -6 -101 -14 -159 -19 -63 -5 -120 -16 -142 -26 -20 -10
-44 -15 -53 -11 -17 6 -17 8 1 27 24 27 101 79 117 79 7 0 26 8 42 17 17 9 86
24 155 34 173 23 197 23 210 0z m410 -1 c52 -6 113 -20 136 -31 22 -10 46 -19
53 -19 19 0 132 -90 126 -101 -9 -14 -38 -11 -76 8 -21 10 -75 20 -142 25 -60
4 -119 10 -131 14 -11 4 -57 10 -100 13 -91 7 -103 17 -92 76 l7 38 62 -6 c34
-4 105 -11 157 -17z m-1705 -86 c8 -4 22 -19 31 -35 12 -24 18 -28 34 -19 52
28 87 5 92 -61 3 -38 -22 -51 -50 -26 -9 8 -28 17 -42 21 -27 7 -120 87 -120
104 0 17 29 26 55 16z m2752 -11 c8 -20 -90 -113 -118 -113 -21 0 -27 34 -9
45 6 4 22 24 36 46 19 31 30 39 54 39 19 0 33 -6 37 -17z m-1353 -48 c14 -11
46 -15 105 -15 154 -1 229 -31 421 -167 40 -30 71 -64 65 -74 -9 -13 -1212
-12 -1220 2 -12 18 58 79 164 144 8 6 27 18 40 28 13 9 31 17 39 17 9 0 35 9
59 21 32 16 70 22 158 26 79 4 119 10 126 19 14 17 19 17 43 -1z m-1074 -94
c72 -96 273 -290 307 -297 19 -4 35 -17 47 -37 16 -30 85 -87 105 -87 5 0 15
-7 22 -17 8 -9 28 -22 44 -30 17 -8 57 -29 90 -48 33 -18 68 -34 77 -34 10 -1
32 -10 50 -21 24 -14 51 -20 96 -20 56 0 67 3 90 28 15 15 35 42 44 60 17 32
18 32 93 32 l75 0 30 -48 c35 -57 62 -72 130 -72 49 0 78 10 208 74 108 53
128 64 141 80 8 9 17 16 22 16 4 0 28 14 53 30 50 34 62 65 51 136 -8 53 3
156 16 148 5 -3 9 -45 9 -94 0 -130 12 -130 155 10 111 108 225 238 225 258 0
5 6 15 14 21 28 23 28 -24 1 -74 -14 -27 -25 -54 -25 -62 0 -8 -9 -26 -20 -40
-11 -14 -20 -35 -20 -45 0 -11 -9 -31 -20 -45 -11 -14 -20 -33 -20 -43 0 -9
-9 -25 -20 -35 -11 -10 -20 -24 -20 -31 0 -7 -15 -34 -32 -59 -18 -26 -38 -56
-45 -68 -17 -31 -38 -59 -83 -108 -38 -42 -40 -43 -73 -31 -49 18 -54 16 -100
-30 -23 -24 -65 -62 -92 -86 -28 -23 -57 -48 -65 -55 -8 -8 -40 -28 -70 -46
-30 -17 -62 -36 -70 -41 -32 -19 -129 -60 -143 -60 -8 0 -34 -9 -58 -20 -37
-16 -66 -20 -179 -20 -102 0 -142 4 -164 15 -17 9 -50 20 -75 26 -115 26 -273
127 -423 273 -51 49 -65 57 -88 53 -23 -5 -32 0 -56 30 -16 19 -39 48 -51 63
-13 15 -23 31 -23 36 0 4 -7 16 -17 26 -18 21 -36 49 -57 94 -8 17 -22 36 -30
44 -9 7 -16 22 -16 35 0 12 -9 30 -20 40 -11 10 -20 28 -20 40 0 12 -8 33 -18
46 -11 13 -22 39 -25 57 -4 18 -16 45 -27 60 -13 18 -18 35 -13 51 l6 24 16
-21 c9 -12 36 -48 61 -81z m528 12 c2 -7 -3 -13 -12 -13 -9 0 -21 -9 -28 -20
-14 -22 -38 -27 -38 -8 0 6 10 22 22 35 23 25 48 27 56 6z m1123 0 c35 -21 44
-45 29 -74 l-12 -21 -26 24 c-15 12 -31 29 -35 36 -4 6 -13 12 -20 12 -21 0
-40 17 -33 29 11 17 64 13 97 -6z m-1304 -190 c-3 -10 -5 -2 -5 17 0 19 2 27
5 18 2 -10 2 -26 0 -35z m1351 -99 c5 -32 -77 -94 -199 -154 -57 -28 -112 -56
-122 -61 -10 -6 -41 -13 -68 -16 -67 -8 -81 5 -73 68 l7 49 -181 0 c-194 0
-203 -3 -176 -51 19 -35 17 -57 -7 -64 -29 -10 -131 4 -149 20 -8 7 -28 15
-44 19 -16 4 -41 16 -54 27 -14 10 -30 19 -37 19 -6 0 -20 9 -30 20 -10 11
-25 20 -34 20 -9 0 -40 22 -70 48 -99 87 -134 83 596 80 l638 -3 3 -21z"/>
<path d="M2700 2418 c-36 -11 -96 -29 -135 -40 -88 -25 -148 -50 -252 -108
-63 -34 -83 -50 -83 -66 0 -39 96 -94 114 -65 8 12 133 95 191 126 45 24 57
26 123 22 54 -4 84 -12 117 -32 99 -57 128 -112 127 -233 -1 -73 1 -82 13 -72
8 7 15 24 15 38 0 13 5 42 11 63 28 91 -29 209 -125 260 -25 13 -46 27 -46 31
0 12 31 24 113 43 128 29 115 55 -28 54 -60 -1 -111 -8 -155 -21z"/>
<path d="M1442 1978 c-17 -17 -15 -53 3 -68 8 -7 25 -10 40 -6 43 11 30 86
-15 86 -9 0 -21 -5 -28 -12z"/>
<path d="M2502 1978 c-21 -21 -14 -57 12 -70 39 -17 58 -4 54 39 -3 32 -7 38
-28 41 -14 2 -31 -3 -38 -10z"/>
<path d="M1187 59 c-15 -4 -51 -19 -79 -33 l-52 -26 92 0 c90 0 92 0 92 24 0
32 -19 45 -53 35z"/>
<path d="M2780 50 c-22 -42 -7 -50 87 -50 l88 0 -60 29 c-89 43 -102 46 -115
21z"/>
</g>
</svg>
